<svg width="235" height="307" viewBox="0 0 235 307" fill="none" xmlns="http://www.w3.org/2000/svg">
<path d="M228 285C217 305 20 308 6.99982 285C-6.28586 261.495 82.9997 87 82.9997 87V26C82.9997 26 72.5 21.2989 72.5 15.5C72.5 9.70108 82.9997 5 82.9997 5H162C162 5 174 8.974 174 15.5C174 22.026 162 26 162 26V87C162 87 239 265 228 285Z" stroke="#444444" stroke-width="10"/>
<path d="M206.133 265.957C197.271 282.115 38.5596 284.538 28.0861 265.957C17.3826 246.968 89.315 106 89.315 106H152.961C152.961 106 214.996 249.8 206.133 265.957Z" fill="#54CCD2"/>
<path d="M95.1602 249H85V209.836L72.8711 213.598V205.336L94.0703 197.742H95.1602V249ZM146.277 227.836C146.277 234.914 144.812 240.328 141.883 244.078C138.953 247.828 134.664 249.703 129.016 249.703C123.438 249.703 119.172 247.863 116.219 244.184C113.266 240.504 111.754 235.23 111.684 228.363V218.941C111.684 211.793 113.16 206.367 116.113 202.664C119.09 198.961 123.367 197.109 128.945 197.109C134.523 197.109 138.789 198.949 141.742 202.629C144.695 206.285 146.207 211.547 146.277 218.414V227.836ZM136.117 217.5C136.117 213.258 135.531 210.176 134.359 208.254C133.211 206.309 131.406 205.336 128.945 205.336C126.555 205.336 124.785 206.262 123.637 208.113C122.512 209.941 121.914 212.812 121.844 216.727V229.172C121.844 233.344 122.406 236.449 123.531 238.488C124.68 240.504 126.508 241.512 129.016 241.512C131.5 241.512 133.293 240.539 134.395 238.594C135.496 236.648 136.07 233.672 136.117 229.664V217.5ZM159.285 209.027H162.168C164.957 209.027 166.352 207.996 166.352 205.934C166.352 205.113 166.012 204.457 165.332 203.965C164.676 203.473 163.773 203.227 162.625 203.227C161.641 203.227 160.797 203.414 160.094 203.789C159.414 204.141 159.074 204.656 159.074 205.336H151.867C151.867 202.945 152.852 201.035 154.82 199.605C156.812 198.152 159.344 197.426 162.414 197.426C165.812 197.426 168.508 198.129 170.5 199.535C172.516 200.918 173.523 202.863 173.523 205.371C173.523 208.16 171.941 210.141 168.777 211.312C172.293 212.273 174.051 214.43 174.051 217.781C174.051 220.242 172.973 222.223 170.816 223.723C168.684 225.199 165.883 225.938 162.414 225.938C159.086 225.938 156.414 225.164 154.398 223.617C152.383 222.047 151.375 219.926 151.375 217.254H158.617C158.617 218.051 159.016 218.742 159.812 219.328C160.609 219.891 161.617 220.172 162.836 220.172C164.242 220.172 165.25 219.867 165.859 219.258C166.492 218.625 166.809 217.898 166.809 217.078C166.809 214.922 165.379 213.832 162.52 213.809H159.285V209.027Z" fill="#444444"/>
<circle cx="143.5" cy="128.5" r="9.5" fill="white"/>
<circle cx="143.5" cy="128.5" r="9.5" fill="white"/>
<circle cx="143.5" cy="128.5" r="9.5" fill="white"/>
<circle cx="110.5" cy="155.5" r="14.5" fill="white"/>
<circle cx="110.5" cy="155.5" r="14.5" fill="white"/>
<circle cx="110.5" cy="155.5" r="14.5" fill="white"/>
<circle cx="106.5" cy="65.5" r="10.5" fill="#54CCD2"/>
<line x1="164" y1="41.5" x2="143" y2="41.5" stroke="#444444" stroke-width="3"/>
<line x1="164" y1="61.5" x2="143" y2="61.5" stroke="#444444" stroke-width="3"/>
</svg>
